<?xml version="1.0" standalone="no"?><!DOCTYPE svg PUBLIC "-//W3C//DTD SVG 1.1//EN" "http://www.w3.org/Graphics/SVG/1.1/DTD/svg11.dtd"><svg t="1506067545765" class="icon" style="" viewBox="0 0 1024 1024" version="1.1" xmlns="http://www.w3.org/2000/svg" p-id="1723" xmlns:xlink="http://www.w3.org/1999/xlink" width="128" height="128"><defs><style type="text/css"></style></defs><path d="M390.52255464 498.88108258h242.95361771c7.2459248 0 13.11891742 5.87426562 13.11891742 13.11891742s-5.87426562 13.11891742-13.11891742 13.11891742h-242.95361771c0 0 0 0 1e-8 0-7.24528828 0-13.11891742-5.87426562-13.11891741-13.11891742 0-7.2459248 5.87426562-13.11891742 13.11891741-13.11891742 0 0 0 0 0 0z" fill="#8a8a8a" p-id="1724"></path><path d="M498.88108258 633.47744536v-242.95361771c0-7.2459248 5.87426562-13.11891742 13.11891742-13.11891742s13.11891742 5.87426562 13.11891742 13.11891742v242.95361771c0 0 0 0 0-1e-8 0 7.24528828-5.87426562 13.11891742-13.11891742 13.11891741-7.2459248 0-13.11891742-5.87426562-13.11891742-13.11891741 0 0 0 0 0 0z" fill="#8a8a8a" p-id="1725"></path></svg>