<?xml version="1.0" standalone="no"?><!DOCTYPE svg PUBLIC "-//W3C//DTD SVG 1.1//EN" "http://www.w3.org/Graphics/SVG/1.1/DTD/svg11.dtd"><svg t="1506067916478" class="icon" style="" viewBox="0 0 1024 1024" version="1.1" xmlns="http://www.w3.org/2000/svg" p-id="8613" xmlns:xlink="http://www.w3.org/1999/xlink" width="128" height="128"><defs><style type="text/css"></style></defs><path d="M328.406823 758.774734 152.456964 168.767126 29.977222 168.767126 29.977222 148.043768 167.89412 148.043768 348.257175 752.850334Z" p-id="8614" fill="#bfbfbf"></path><path d="M960.37893 767.691438l-20.717337 0c0-28.682765-23.330335-52.0131-52.019121-52.0131l0-20.723358C927.752586 694.95498 960.37893 727.575303 960.37893 767.691438z" p-id="8615" fill="#bfbfbf"></path><path d="M1007.04562 750.153047l-20.717337 0c0-28.688786-23.336355-52.025141-52.025141-52.025141l0-20.717337C974.407234 677.410568 1007.04562 710.036912 1007.04562 750.153047z" p-id="8616" fill="#bfbfbf"></path><path d="M924.08596 358.660999" p-id="8617" fill="#bfbfbf"></path><path d="M315.125089 684.262161l-2.396251-20.584881 549.175007-64.036501c28.694807 0 52.031162-23.342376 52.031162-52.019121l0.198684-188.647581c0-25.040222-14.15474-52.007079-45.245798-52.007079L201.381429 306.966998l0-20.711317 667.506465 0c38.225625 0 65.951093 30.585316 65.951093 72.730437l-0.198684 188.978722c-0.186643 39.736828-32.403577 72.056115-72.110302 72.387255L315.125089 684.262161z" p-id="8618" fill="#bfbfbf"></path><path d="M393.508993 875.239765c-43.228852 0-78.407987-35.173114-78.407987-78.414008 0-43.240894 35.179134-78.407987 78.407987-78.407987 43.234873 0 78.407987 35.173114 78.407987 78.407987C471.923 840.048589 436.749887 875.239765 393.508993 875.239765zM393.508993 739.117046c-31.807525 0-57.684629 25.889146-57.684629 57.69065 0 31.825587 25.871083 57.69065 57.684629 57.69065 31.819566 0 57.69667-25.871083 57.69667-57.69065C451.205663 765.006191 425.33458 739.117046 393.508993 739.117046z" p-id="8619" fill="#bfbfbf"></path><path d="M829.397915 875.239765c-43.234873 0-78.395945-35.173114-78.395945-78.414008 0-43.240894 35.167093-78.407987 78.395945-78.407987 43.246915 0 78.420028 35.173114 78.420028 78.407987C907.823964 840.048589 872.64483 875.239765 829.397915 875.239765zM829.397915 739.117046c-31.807525 0-57.678608 25.889146-57.678608 57.69065 0 31.825587 25.877104 57.69065 57.678608 57.69065 31.825587 0 57.702691-25.871083 57.702691-57.69065C887.100606 765.006191 861.217481 739.117046 829.397915 739.117046z" p-id="8620" fill="#bfbfbf"></path><path d="M461.567342 786.458058l299.790286 0 0 20.711317-299.790286 0 0-20.711317Z" p-id="8621" fill="#bfbfbf"></path><path d="M505.073148 546.832942c2.932096 5.075477 1.186084 11.571846-3.889393 14.503942l0 0c-5.081497 2.932096-11.571846 1.192105-14.503942-3.889393L409.746906 424.196662c-2.938117-5.087518-1.198126-11.577867 3.877351-14.509963l0 0c5.081497-2.932096 11.577867-1.192105 14.509963 3.889393L505.073148 546.832942z" p-id="8622" fill="#bfbfbf"></path><path d="M628.522228 539.421422c2.926076 5.081497 1.192105 11.571846-3.889393 14.503942l0 0c-5.081497 2.932096-11.583887 1.198126-14.515984-3.895413l-76.926887-133.238789c-2.938117-5.087518-1.204146-11.577867 3.889393-14.509963l0 0c5.081497-2.932096 11.577867-1.192105 14.497922 3.889393L628.522228 539.421422z" p-id="8623" fill="#bfbfbf"></path><path d="M751.971307 532.027963c2.932096 5.081497 1.198126 11.571846-3.889393 14.503942l0 0c-5.087518 2.932096-11.583887 1.192105-14.515984-3.889393l-76.938928-133.256851c-2.938117-5.087518-1.192105-11.577867 3.889393-14.509963l0 0c5.087518-2.932096 11.565825-1.192105 14.497922 3.889393L751.971307 532.027963z" p-id="8624" fill="#bfbfbf"></path><path d="M30.308363 158.441571m-10.313513 0a1.713 1.713 0 1 0 20.627026 0 1.713 1.713 0 1 0-20.627026 0Z" p-id="8625" fill="#bfbfbf"></path><path d="M887.642472 705.310638m-10.313513 0a1.713 1.713 0 1 0 20.627026 0 1.713 1.713 0 1 0-20.627026 0Z" p-id="8626" fill="#bfbfbf"></path><path d="M950.023272 767.697458m-10.307492 0a1.712 1.712 0 1 0 20.614985 0 1.712 1.712 0 1 0-20.614985 0Z" p-id="8627" fill="#bfbfbf"></path><path d="M934.303141 687.772247m-10.313513 0a1.713 1.713 0 1 0 20.627026 0 1.713 1.713 0 1 0-20.627026 0Z" p-id="8628" fill="#bfbfbf"></path><path d="M996.683941 750.147026m-10.313513 0a1.713 1.713 0 1 0 20.627026 0 1.713 1.713 0 1 0-20.627026 0Z" p-id="8629" fill="#bfbfbf"></path></svg>