<?xml version="1.0" standalone="no"?><!DOCTYPE svg PUBLIC "-//W3C//DTD SVG 1.1//EN" "http://www.w3.org/Graphics/SVG/1.1/DTD/svg11.dtd"><svg t="1506067647163" class="icon" style="" viewBox="0 0 1024 1024" version="1.1" xmlns="http://www.w3.org/2000/svg" p-id="5589" xmlns:xlink="http://www.w3.org/1999/xlink" width="128" height="128"><defs><style type="text/css"></style></defs><path d="M842.395384 357.728404l-40.171931 0 0-30.699186 40.171931 0c10.520611 0 19.080567-8.559956 19.080567-19.081591l0-80.340793c0-10.522658-8.559956-19.082614-19.080567-19.082614L186.278055 208.524221c-10.521634 0-19.081591 8.559956-19.081591 19.082614l0 80.340793c0 10.521634 8.559956 19.081591 19.081591 19.081591l36.344766 0 0 30.699186-36.344766 0c-27.449165 0-49.780777-22.331611-49.780777-49.780777l0-80.340793c0-27.450189 22.331611-49.7818 49.780777-49.7818l656.117328 0c27.449165 0 49.779753 22.331611 49.779753 49.7818l0 80.340793C892.176161 335.396793 869.845573 357.728404 842.395384 357.728404z" p-id="5590" fill="#8a8a8a"></path><path d="M603.285564 208.523197 415.822009 208.523197c-27.449165 0-49.780777-22.331611-49.780777-49.780777l0-50.690496c0-12.970406 5.105275-26.103518 14.007015-36.029588 9.472745-10.562567 22.511713-16.621563 35.773761-16.621563l187.463556 0c13.262048 0 26.301016 6.057973 35.773761 16.621563 8.900717 9.927093 14.007015 23.059182 14.007015 36.029588l0 50.690496C653.066341 186.191586 630.735753 208.523197 603.285564 208.523197zM415.822009 86.09996c-9.80839 0-19.081591 10.667967-19.081591 21.951965l0 50.690496c0 10.521634 8.559956 19.081591 19.081591 19.081591l187.463556 0c10.520611 0 19.080567-8.559956 19.080567-19.081591l0-50.690496c0-11.282974-9.273201-21.951965-19.080567-21.951965L415.822009 86.09996z" p-id="5591" fill="#8a8a8a"></path><path d="M767.791246 969.849706 257.052982 969.849706c-27.449165 0-49.780777-22.330588-49.780777-49.779753L207.272205 327.029218l610.298793 0 0 593.039711C817.572022 947.518095 795.240411 969.849706 767.791246 969.849706zM237.971391 357.728404l0 562.340525c0 10.521634 8.559956 19.080567 19.081591 19.080567l510.738263 0c10.520611 0 19.080567-8.558933 19.080567-19.080567L786.871813 357.728404 237.971391 357.728404z" p-id="5592" fill="#8a8a8a"></path><path d="M350.737688 462.891536l30.699186 0 0 390.228609-30.699186 0 0-390.228609Z" p-id="5593" fill="#8a8a8a"></path><path d="M498.031359 462.891536l30.699186 0 0 390.228609-30.699186 0 0-390.228609Z" p-id="5594" fill="#8a8a8a"></path><path d="M641.496841 462.891536l30.699186 0 0 390.228609-30.699186 0 0-390.228609Z" p-id="5595" fill="#8a8a8a"></path></svg>